<svg xmlns="http://www.w3.org/2000/svg" width="720" height="520" viewBox="0 0 720 520" fill="none" aria-hidden="true">
  <defs>
    <linearGradient id="grad" x1="80" y1="70" x2="640" y2="440" gradientUnits="userSpaceOnUse">
      <stop stop-color="#5B61F6"/>
      <stop offset="1" stop-color="#9A8BFF"/>
    </linearGradient>
    <linearGradient id="bg" x1="0" y1="0" x2="720" y2="520" gradientUnits="userSpaceOnUse">
      <stop stop-color="#FCFDFF"/>
      <stop offset="1" stop-color="#EEF2FB"/>
    </linearGradient>
    <filter id="shadow" x="-20%" y="-20%" width="140%" height="140%">
      <feDropShadow dx="0" dy="24" stdDeviation="24" flood-color="#111827" flood-opacity=".08"/>
    </filter>
  </defs>
  <rect width="720" height="520" rx="40" fill="url(#bg)"/>
  <circle cx="115" cy="83" r="88" fill="#EDEBFF"/>
  <circle cx="634" cy="104" r="58" fill="#EAF3FF"/>
  <circle cx="619" cy="406" r="76" fill="#F3F0FF"/>
  

<g filter="url(#shadow)">
  <rect x="110" y="80" width="500" height="360" rx="32" fill="white" fill-opacity=".9"/>
  <rect x="110.5" y="80.5" width="499" height="359" rx="31.5" stroke="white" stroke-opacity=".8"/>
</g>

<g><rect x="130" y="120" width="188" height="120" rx="28" fill="#F7F9FE" stroke="#E4E9F5"/><rect x="154" y="142" width="56" height="56" rx="18" fill="url(#grad)" fill-opacity=".12"/><rect x="226" y="150" width="60" height="10" rx="5" fill="#B4BBDD" fill-opacity=".95"/><rect x="226" y="172" width="76" height="10" rx="5" fill="#D7DCF4" fill-opacity=".95"/></g><g><rect x="402" y="120" width="188" height="120" rx="28" fill="#F7F9FE" stroke="#E4E9F5"/><rect x="426" y="142" width="56" height="56" rx="18" fill="url(#grad)" fill-opacity=".12"/><rect x="498" y="150" width="60" height="10" rx="5" fill="#B4BBDD" fill-opacity=".95"/><rect x="498" y="172" width="76" height="10" rx="5" fill="#D7DCF4" fill-opacity=".95"/></g><g><rect x="130" y="278" width="188" height="120" rx="28" fill="#F7F9FE" stroke="#E4E9F5"/><rect x="154" y="300" width="56" height="56" rx="18" fill="url(#grad)" fill-opacity=".12"/><rect x="226" y="308" width="60" height="10" rx="5" fill="#B4BBDD" fill-opacity=".95"/><rect x="226" y="330" width="76" height="10" rx="5" fill="#D7DCF4" fill-opacity=".95"/></g><g><rect x="402" y="278" width="188" height="120" rx="28" fill="#F7F9FE" stroke="#E4E9F5"/><rect x="426" y="300" width="56" height="56" rx="18" fill="url(#grad)" fill-opacity=".12"/><rect x="498" y="308" width="60" height="10" rx="5" fill="#B4BBDD" fill-opacity=".95"/><rect x="498" y="330" width="76" height="10" rx="5" fill="#D7DCF4" fill-opacity=".95"/></g>
<path d="M224 180H402" stroke="#E1E7F5" stroke-width="6" stroke-linecap="round"/>
<path d="M224 338H402" stroke="#E1E7F5" stroke-width="6" stroke-linecap="round"/>
<path d="M222 240v38" stroke="#E1E7F5" stroke-width="6" stroke-linecap="round"/>
<path d="M498 240v38" stroke="#E1E7F5" stroke-width="6" stroke-linecap="round"/>

</svg>