<svg xmlns="http://www.w3.org/2000/svg" width="720" height="520" viewBox="0 0 720 520" fill="none" aria-hidden="true">
  <defs>
    <linearGradient id="grad" x1="80" y1="70" x2="640" y2="440" gradientUnits="userSpaceOnUse">
      <stop stop-color="#5B61F6"/>
      <stop offset="1" stop-color="#9A8BFF"/>
    </linearGradient>
    <linearGradient id="bg" x1="0" y1="0" x2="720" y2="520" gradientUnits="userSpaceOnUse">
      <stop stop-color="#FCFDFF"/>
      <stop offset="1" stop-color="#EEF2FB"/>
    </linearGradient>
    <filter id="shadow" x="-20%" y="-20%" width="140%" height="140%">
      <feDropShadow dx="0" dy="24" stdDeviation="24" flood-color="#111827" flood-opacity=".08"/>
    </filter>
  </defs>
  <rect width="720" height="520" rx="40" fill="url(#bg)"/>
  <circle cx="115" cy="83" r="88" fill="#EDEBFF"/>
  <circle cx="634" cy="104" r="58" fill="#EAF3FF"/>
  <circle cx="619" cy="406" r="76" fill="#F3F0FF"/>
  

<g filter="url(#shadow)">
  <rect x="110" y="80" width="500" height="360" rx="32" fill="white" fill-opacity=".9"/>
  <rect x="110.5" y="80.5" width="499" height="359" rx="31.5" stroke="white" stroke-opacity=".8"/>
</g>

<g filter="url(#shadow)">
  <rect x="156" y="138" width="256" height="198" rx="28" fill="white"/>
  <rect x="156.5" y="138.5" width="255" height="197" rx="27.5" stroke="#E7EBF7"/>
</g>
<rect x="196" y="178" width="176" height="118" rx="22" fill="#F7F9FE" stroke="#E4E9F5"/>
<path d="M206 192l78 56 78-56" stroke="url(#grad)" stroke-width="6" stroke-linecap="round" stroke-linejoin="round"/>
<g filter="url(#shadow)">
  <rect x="430" y="116" width="128" height="92" rx="22" fill="white"/>
  <rect x="430.5" y="116.5" width="127" height="91" rx="21.5" stroke="#E7EBF7"/>
</g>
<rect x="456" y="144" width="54" height="10" rx="5" fill="#B4BBDD" fill-opacity=".95"/>
<rect x="456" y="165" width="68" height="10" rx="5" fill="#D6DCF3" fill-opacity=".95"/>
<g filter="url(#shadow)">
  <rect x="448" y="250" width="140" height="108" rx="24" fill="white"/>
  <rect x="448.5" y="250.5" width="139" height="107" rx="23.5" stroke="#E7EBF7"/>
</g>
<rect x="476" y="280" width="84" height="22" rx="11" fill="url(#grad)" fill-opacity=".14"/>
<rect x="476" y="316" width="62" height="10" rx="5" fill="#B4BBDD" fill-opacity=".95"/>

</svg>