<svg xmlns="http://www.w3.org/2000/svg" width="720" height="520" viewBox="0 0 720 520" fill="none" aria-hidden="true">
  <defs>
    <linearGradient id="grad" x1="80" y1="70" x2="640" y2="440" gradientUnits="userSpaceOnUse">
      <stop stop-color="#5B61F6"/>
      <stop offset="1" stop-color="#9A8BFF"/>
    </linearGradient>
    <linearGradient id="bg" x1="0" y1="0" x2="720" y2="520" gradientUnits="userSpaceOnUse">
      <stop stop-color="#FCFDFF"/>
      <stop offset="1" stop-color="#EEF2FB"/>
    </linearGradient>
    <filter id="shadow" x="-20%" y="-20%" width="140%" height="140%">
      <feDropShadow dx="0" dy="24" stdDeviation="24" flood-color="#111827" flood-opacity=".08"/>
    </filter>
  </defs>
  <rect width="720" height="520" rx="40" fill="url(#bg)"/>
  <circle cx="115" cy="83" r="88" fill="#EDEBFF"/>
  <circle cx="634" cy="104" r="58" fill="#EAF3FF"/>
  <circle cx="619" cy="406" r="76" fill="#F3F0FF"/>
  

<g filter="url(#shadow)">
  <rect x="110" y="80" width="500" height="360" rx="32" fill="white" fill-opacity=".9"/>
  <rect x="110.5" y="80.5" width="499" height="359" rx="31.5" stroke="white" stroke-opacity=".8"/>
</g>

<g filter="url(#shadow)">
  <rect x="152" y="104" width="260" height="292" rx="28" fill="white"/>
  <rect x="152.5" y="104.5" width="259" height="291" rx="27.5" stroke="#E7EBF7"/>
</g>
<rect x="190" y="146" width="160" height="16" rx="8" fill="#D5DCF3"/><rect x="190" y="186" width="120" height="16" rx="8" fill="#D5DCF3"/><rect x="190" y="226" width="160" height="16" rx="8" fill="#D5DCF3"/><rect x="190" y="266" width="120" height="16" rx="8" fill="#D5DCF3"/><rect x="190" y="306" width="160" height="16" rx="8" fill="#D5DCF3"/>
<rect x="190" y="168" width="120" height="10" rx="5" fill="#E6EAF7"/><rect x="190" y="208" width="86" height="10" rx="5" fill="#E6EAF7"/><rect x="190" y="248" width="120" height="10" rx="5" fill="#E6EAF7"/><rect x="190" y="288" width="86" height="10" rx="5" fill="#E6EAF7"/><rect x="190" y="328" width="120" height="10" rx="5" fill="#E6EAF7"/>
<g filter="url(#shadow)">
  <rect x="390" y="152" width="176" height="120" rx="28" fill="white"/>
  <rect x="390.5" y="152.5" width="175" height="119" rx="27.5" stroke="#E7EBF7"/>
</g>
<circle cx="430" cy="212" r="28" fill="url(#grad)" fill-opacity=".12"/>
<path d="M418 212h24" stroke="url(#grad)" stroke-width="6" stroke-linecap="round"/>
<path d="M430 200v24" stroke="url(#grad)" stroke-width="6" stroke-linecap="round"/>
<g filter="url(#shadow)">
  <rect x="424" y="296" width="120" height="72" rx="22" fill="white"/>
  <rect x="424.5" y="296.5" width="119" height="71" rx="21.5" stroke="#E7EBF7"/>
</g>
<rect x="450" y="320" width="62" height="10" rx="5" fill="#B4BBDD" fill-opacity=".95"/>
<rect x="450" y="340" width="38" height="10" rx="5" fill="#D6DCF3" fill-opacity=".95"/>

</svg>