<svg xmlns="http://www.w3.org/2000/svg" width="720" height="520" viewBox="0 0 720 520" fill="none" aria-hidden="true">
  <defs>
    <linearGradient id="grad" x1="80" y1="70" x2="640" y2="440" gradientUnits="userSpaceOnUse">
      <stop stop-color="#5B61F6"/>
      <stop offset="1" stop-color="#9A8BFF"/>
    </linearGradient>
    <linearGradient id="bg" x1="0" y1="0" x2="720" y2="520" gradientUnits="userSpaceOnUse">
      <stop stop-color="#FCFDFF"/>
      <stop offset="1" stop-color="#EEF2FB"/>
    </linearGradient>
    <filter id="shadow" x="-20%" y="-20%" width="140%" height="140%">
      <feDropShadow dx="0" dy="24" stdDeviation="24" flood-color="#111827" flood-opacity=".08"/>
    </filter>
  </defs>
  <rect width="720" height="520" rx="40" fill="url(#bg)"/>
  <circle cx="115" cy="83" r="88" fill="#EDEBFF"/>
  <circle cx="634" cy="104" r="58" fill="#EAF3FF"/>
  <circle cx="619" cy="406" r="76" fill="#F3F0FF"/>
  

<g filter="url(#shadow)">
  <rect x="110" y="80" width="500" height="360" rx="32" fill="white" fill-opacity=".9"/>
  <rect x="110.5" y="80.5" width="499" height="359" rx="31.5" stroke="white" stroke-opacity=".8"/>
</g>

<rect x="150" y="132" width="250" height="18" rx="9" fill="#D7DCF4"/>
<rect x="150" y="160" width="180" height="14" rx="7" fill="#E4E9F7"/>
<rect x="150" y="230" width="180" height="120" rx="24" fill="#F7F9FE" stroke="#E5E9F5"/>
<rect x="350" y="230" width="220" height="52" rx="22" fill="#F7F9FE" stroke="#E5E9F5"/>
<rect x="350" y="298" width="220" height="52" rx="22" fill="#F7F9FE" stroke="#E5E9F5"/>
<rect x="350" y="366" width="220" height="32" rx="16" fill="url(#grad)" fill-opacity=".16"/>
<path d="M210 288C240 240 290 218 340 222C402 228 444 272 505 280" stroke="url(#grad)" stroke-width="10" stroke-linecap="round"/>
<circle cx="210" cy="288" r="16" fill="url(#grad)"/>
<circle cx="505" cy="280" r="16" fill="url(#grad)"/>
<circle cx="334" cy="224" r="12" fill="#B8BCFF"/>
<g filter="url(#shadow)">
  <rect x="72" y="180" width="136" height="86" rx="22" fill="white"/>
  <rect x="72.5" y="180.5" width="135" height="85" rx="21.5" stroke="#E7EBF7"/>
</g>
<rect x="98" y="206" width="72" height="10" rx="5" fill="#B4BBDD" fill-opacity=".95"/>
<rect x="98" y="226" width="48" height="10" rx="5" fill="#D6DCF3" fill-opacity=".95"/>
<rect x="98" y="246" width="58" height="10" rx="5" fill="#DEE4F8" fill-opacity=".95"/>
<g filter="url(#shadow)">
  <rect x="494" y="112" width="150" height="96" rx="24" fill="white"/>
  <rect x="494.5" y="112.5" width="149" height="95" rx="23.5" stroke="#E7EBF7"/>
</g>
<rect x="524" y="138" width="54" height="54" rx="18" fill="url(#grad)" fill-opacity=".14"/>
<path d="M542 164h20" stroke="url(#grad)" stroke-width="4" stroke-linecap="round"/>
<path d="M552 154l10 10-10 10" stroke="url(#grad)" stroke-width="4" stroke-linecap="round" stroke-linejoin="round"/>

</svg>