<svg xmlns="http://www.w3.org/2000/svg" width="720" height="520" viewBox="0 0 720 520" fill="none" aria-hidden="true">
  <defs>
    <linearGradient id="grad" x1="80" y1="70" x2="640" y2="440" gradientUnits="userSpaceOnUse">
      <stop stop-color="#5B61F6"/>
      <stop offset="1" stop-color="#9A8BFF"/>
    </linearGradient>
    <linearGradient id="bg" x1="0" y1="0" x2="720" y2="520" gradientUnits="userSpaceOnUse">
      <stop stop-color="#FCFDFF"/>
      <stop offset="1" stop-color="#EEF2FB"/>
    </linearGradient>
    <filter id="shadow" x="-20%" y="-20%" width="140%" height="140%">
      <feDropShadow dx="0" dy="24" stdDeviation="24" flood-color="#111827" flood-opacity=".08"/>
    </filter>
  </defs>
  <rect width="720" height="520" rx="40" fill="url(#bg)"/>
  <circle cx="115" cy="83" r="88" fill="#EDEBFF"/>
  <circle cx="634" cy="104" r="58" fill="#EAF3FF"/>
  <circle cx="619" cy="406" r="76" fill="#F3F0FF"/>
  

<g filter="url(#shadow)">
  <rect x="110" y="80" width="500" height="360" rx="32" fill="white" fill-opacity=".9"/>
  <rect x="110.5" y="80.5" width="499" height="359" rx="31.5" stroke="white" stroke-opacity=".8"/>
</g>

<circle cx="360" cy="260" r="74" fill="url(#grad)" fill-opacity=".12" stroke="url(#grad)" stroke-width="3"/>
<path d="M360 190l48 18v42c0 27-14 44-48 58-34-14-48-31-48-58v-42l48-18Z" fill="white" stroke="url(#grad)" stroke-width="6"/>
<path d="M336 254l16 16 34-34" stroke="url(#grad)" stroke-width="8" stroke-linecap="round" stroke-linejoin="round"/>
<g><rect x="120" y="112" width="140" height="78" rx="22" fill="#F7F9FE" stroke="#E5E9F5"/><rect x="144" y="134" width="72" height="10" rx="5" fill="#B4BBDD" fill-opacity=".95"/><rect x="144" y="156" width="46" height="10" rx="5" fill="#D8DDF4" fill-opacity=".95"/></g><g><rect x="458" y="112" width="140" height="78" rx="22" fill="#F7F9FE" stroke="#E5E9F5"/><rect x="482" y="134" width="72" height="10" rx="5" fill="#B4BBDD" fill-opacity=".95"/><rect x="482" y="156" width="46" height="10" rx="5" fill="#D8DDF4" fill-opacity=".95"/></g><g><rect x="120" y="330" width="140" height="78" rx="22" fill="#F7F9FE" stroke="#E5E9F5"/><rect x="144" y="352" width="72" height="10" rx="5" fill="#B4BBDD" fill-opacity=".95"/><rect x="144" y="374" width="46" height="10" rx="5" fill="#D8DDF4" fill-opacity=".95"/></g><g><rect x="458" y="330" width="140" height="78" rx="22" fill="#F7F9FE" stroke="#E5E9F5"/><rect x="482" y="352" width="72" height="10" rx="5" fill="#B4BBDD" fill-opacity=".95"/><rect x="482" y="374" width="46" height="10" rx="5" fill="#D8DDF4" fill-opacity=".95"/></g>

</svg>