<svg xmlns="http://www.w3.org/2000/svg" width="720" height="520" viewBox="0 0 720 520" fill="none" aria-hidden="true">
  <defs>
    <linearGradient id="grad" x1="80" y1="70" x2="640" y2="440" gradientUnits="userSpaceOnUse">
      <stop stop-color="#5B61F6"/>
      <stop offset="1" stop-color="#9A8BFF"/>
    </linearGradient>
    <linearGradient id="bg" x1="0" y1="0" x2="720" y2="520" gradientUnits="userSpaceOnUse">
      <stop stop-color="#FCFDFF"/>
      <stop offset="1" stop-color="#EEF2FB"/>
    </linearGradient>
    <filter id="shadow" x="-20%" y="-20%" width="140%" height="140%">
      <feDropShadow dx="0" dy="24" stdDeviation="24" flood-color="#111827" flood-opacity=".08"/>
    </filter>
  </defs>
  <rect width="720" height="520" rx="40" fill="url(#bg)"/>
  <circle cx="115" cy="83" r="88" fill="#EDEBFF"/>
  <circle cx="634" cy="104" r="58" fill="#EAF3FF"/>
  <circle cx="619" cy="406" r="76" fill="#F3F0FF"/>
  

<g filter="url(#shadow)">
  <rect x="110" y="80" width="500" height="360" rx="32" fill="white" fill-opacity=".9"/>
  <rect x="110.5" y="80.5" width="499" height="359" rx="31.5" stroke="white" stroke-opacity=".8"/>
</g>

<rect x="160" y="120" width="18" height="250" rx="9" fill="#EEF2FB"/>
<rect x="166" y="126" width="6" height="238" rx="3" fill="url(#grad)"/>
<circle cx="169" cy="150" r="20" fill="white" stroke="#E4E9F5"/><circle cx="169" cy="150" r="11" fill="url(#grad)"/><circle cx="169" cy="206" r="20" fill="white" stroke="#E4E9F5"/><circle cx="169" cy="206" r="11" fill="url(#grad)"/><circle cx="169" cy="262" r="20" fill="white" stroke="#E4E9F5"/><circle cx="169" cy="262" r="11" fill="url(#grad)"/><circle cx="169" cy="318" r="20" fill="white" stroke="#E4E9F5"/><circle cx="169" cy="318" r="11" fill="url(#grad)"/><circle cx="169" cy="374" r="20" fill="white" stroke="#E4E9F5"/><circle cx="169" cy="374" r="11" fill="url(#grad)"/>
<rect x="220" y="128" width="320" height="40" rx="18" fill="#F7F9FE" stroke="#E4E9F5"/><rect x="220" y="184" width="320" height="40" rx="18" fill="#F7F9FE" stroke="#E4E9F5"/><rect x="220" y="240" width="320" height="40" rx="18" fill="#F7F9FE" stroke="#E4E9F5"/><rect x="220" y="296" width="320" height="40" rx="18" fill="#F7F9FE" stroke="#E4E9F5"/><rect x="220" y="352" width="320" height="40" rx="18" fill="#F7F9FE" stroke="#E4E9F5"/>
<rect x="248" y="142" width="180" height="12" rx="6" fill="#CBD4EC"/><rect x="248" y="198" width="162" height="12" rx="6" fill="#CBD4EC"/><rect x="248" y="254" width="144" height="12" rx="6" fill="#CBD4EC"/><rect x="248" y="310" width="126" height="12" rx="6" fill="#CBD4EC"/><rect x="248" y="366" width="108" height="12" rx="6" fill="#CBD4EC"/>
<g filter="url(#shadow)">
  <rect x="458" y="84" width="128" height="82" rx="22" fill="white"/>
  <rect x="458.5" y="84.5" width="127" height="81" rx="21.5" stroke="#E7EBF7"/>
</g>
<path d="M494 108l16 16 40-40" stroke="url(#grad)" stroke-width="8" stroke-linecap="round" stroke-linejoin="round"/>

</svg>