<svg xmlns="http://www.w3.org/2000/svg" width="720" height="520" viewBox="0 0 720 520" fill="none" aria-hidden="true">
  <defs>
    <linearGradient id="grad" x1="80" y1="70" x2="640" y2="440" gradientUnits="userSpaceOnUse">
      <stop stop-color="#5B61F6"/>
      <stop offset="1" stop-color="#9A8BFF"/>
    </linearGradient>
    <linearGradient id="bg" x1="0" y1="0" x2="720" y2="520" gradientUnits="userSpaceOnUse">
      <stop stop-color="#FCFDFF"/>
      <stop offset="1" stop-color="#EEF2FB"/>
    </linearGradient>
    <filter id="shadow" x="-20%" y="-20%" width="140%" height="140%">
      <feDropShadow dx="0" dy="24" stdDeviation="24" flood-color="#111827" flood-opacity=".08"/>
    </filter>
  </defs>
  <rect width="720" height="520" rx="40" fill="url(#bg)"/>
  <circle cx="115" cy="83" r="88" fill="#EDEBFF"/>
  <circle cx="634" cy="104" r="58" fill="#EAF3FF"/>
  <circle cx="619" cy="406" r="76" fill="#F3F0FF"/>
  

<g filter="url(#shadow)">
  <rect x="110" y="80" width="500" height="360" rx="32" fill="white" fill-opacity=".9"/>
  <rect x="110.5" y="80.5" width="499" height="359" rx="31.5" stroke="white" stroke-opacity=".8"/>
</g>

<rect x="156" y="118" width="408" height="276" rx="30" fill="#F7F9FE" stroke="#E4E9F5"/>
<rect x="188" y="154" width="130" height="22" rx="11" fill="#D5DCF3"/>
<rect x="188" y="194" width="160" height="112" rx="26" fill="white" stroke="#E4E9F5"/>
<rect x="370" y="194" width="160" height="52" rx="22" fill="white" stroke="#E4E9F5"/>
<rect x="370" y="264" width="160" height="52" rx="22" fill="white" stroke="#E4E9F5"/>
<rect x="188" y="328" width="342" height="28" rx="14" fill="white" stroke="#E4E9F5"/>
<path d="M432 152l26 64-22 8-8 22-64-26 68-68Z" fill="url(#grad)" fill-opacity=".14" stroke="url(#grad)" stroke-width="4" stroke-linejoin="round"/>
<circle cx="221" cy="230" r="16" fill="#EEF1FF"/>
<circle cx="258" cy="230" r="16" fill="#EEF1FF"/>
<circle cx="293" cy="230" r="16" fill="#EEF1FF"/>

</svg>