<svg xmlns="http://www.w3.org/2000/svg" width="720" height="520" viewBox="0 0 720 520" fill="none" aria-hidden="true">
  <defs>
    <linearGradient id="grad" x1="80" y1="70" x2="640" y2="440" gradientUnits="userSpaceOnUse">
      <stop stop-color="#5B61F6"/>
      <stop offset="1" stop-color="#9A8BFF"/>
    </linearGradient>
    <linearGradient id="bg" x1="0" y1="0" x2="720" y2="520" gradientUnits="userSpaceOnUse">
      <stop stop-color="#FCFDFF"/>
      <stop offset="1" stop-color="#EEF2FB"/>
    </linearGradient>
    <filter id="shadow" x="-20%" y="-20%" width="140%" height="140%">
      <feDropShadow dx="0" dy="24" stdDeviation="24" flood-color="#111827" flood-opacity=".08"/>
    </filter>
  </defs>
  <rect width="720" height="520" rx="40" fill="url(#bg)"/>
  <circle cx="115" cy="83" r="88" fill="#EDEBFF"/>
  <circle cx="634" cy="104" r="58" fill="#EAF3FF"/>
  <circle cx="619" cy="406" r="76" fill="#F3F0FF"/>
  

<g filter="url(#shadow)">
  <rect x="110" y="80" width="500" height="360" rx="32" fill="white" fill-opacity=".9"/>
  <rect x="110.5" y="80.5" width="499" height="359" rx="31.5" stroke="white" stroke-opacity=".8"/>
</g>

<g filter="url(#shadow)">
  <rect x="280" y="90" width="160" height="340" rx="38" fill="white"/>
  <rect x="280.5" y="90.5" width="159" height="339" rx="37.5" stroke="#E7EBF7"/>
</g>
<rect x="316" y="132" width="88" height="18" rx="9" fill="#D5DCF3"/>
<rect x="308" y="180" width="104" height="84" rx="24" fill="#F7F9FE" stroke="#E4E9F5"/>
<circle cx="360" cy="222" r="22" fill="url(#grad)" fill-opacity=".14"/>
<path d="M348 222h24" stroke="url(#grad)" stroke-width="6" stroke-linecap="round"/>
<path d="M360 210v24" stroke="url(#grad)" stroke-width="6" stroke-linecap="round"/>
<rect x="308" y="286" width="104" height="20" rx="10" fill="#D5DCF3"/>
<rect x="308" y="320" width="104" height="20" rx="10" fill="#E4E9F7"/>
<circle cx="360" cy="392" r="10" fill="url(#grad)" fill-opacity=".3"/>
<g filter="url(#shadow)">
  <rect x="140" y="154" width="112" height="82" rx="22" fill="white"/>
  <rect x="140.5" y="154.5" width="111" height="81" rx="21.5" stroke="#E7EBF7"/>
</g>
<rect x="166" y="182" width="54" height="10" rx="5" fill="#B4BBDD" fill-opacity=".95"/>
<rect x="166" y="202" width="38" height="10" rx="5" fill="#D7DCF4" fill-opacity=".95"/>
<g filter="url(#shadow)">
  <rect x="466" y="260" width="120" height="88" rx="24" fill="white"/>
  <rect x="466.5" y="260.5" width="119" height="87" rx="23.5" stroke="#E7EBF7"/>
</g>
<rect x="494" y="290" width="60" height="10" rx="5" fill="#B4BBDD" fill-opacity=".95"/>
<rect x="494" y="312" width="42" height="10" rx="5" fill="#D7DCF4" fill-opacity=".95"/>

</svg>