<svg xmlns="http://www.w3.org/2000/svg" width="720" height="520" viewBox="0 0 720 520" fill="none" aria-hidden="true">
  <defs>
    <linearGradient id="grad" x1="80" y1="70" x2="640" y2="440" gradientUnits="userSpaceOnUse">
      <stop stop-color="#5B61F6"/>
      <stop offset="1" stop-color="#9A8BFF"/>
    </linearGradient>
    <linearGradient id="bg" x1="0" y1="0" x2="720" y2="520" gradientUnits="userSpaceOnUse">
      <stop stop-color="#FCFDFF"/>
      <stop offset="1" stop-color="#EEF2FB"/>
    </linearGradient>
    <filter id="shadow" x="-20%" y="-20%" width="140%" height="140%">
      <feDropShadow dx="0" dy="24" stdDeviation="24" flood-color="#111827" flood-opacity=".08"/>
    </filter>
  </defs>
  <rect width="720" height="520" rx="40" fill="url(#bg)"/>
  <circle cx="115" cy="83" r="88" fill="#EDEBFF"/>
  <circle cx="634" cy="104" r="58" fill="#EAF3FF"/>
  <circle cx="619" cy="406" r="76" fill="#F3F0FF"/>
  

<g filter="url(#shadow)">
  <rect x="110" y="80" width="500" height="360" rx="32" fill="white" fill-opacity=".9"/>
  <rect x="110.5" y="80.5" width="499" height="359" rx="31.5" stroke="white" stroke-opacity=".8"/>
</g>

<rect x="154" y="138" width="172" height="180" rx="28" fill="#F7F9FE" stroke="#E4E9F5"/>
<path d="M206 180h52l8 38h-68l8-38Z" fill="url(#grad)" fill-opacity=".12" stroke="url(#grad)" stroke-width="4"/>
<circle cx="212" cy="244" r="10" fill="url(#grad)" fill-opacity=".2"/>
<circle cx="256" cy="244" r="10" fill="url(#grad)" fill-opacity=".2"/>
<rect x="354" y="138" width="214" height="62" rx="26" fill="#F7F9FE" stroke="#E4E9F5"/>
<rect x="386" y="160" width="78" height="10" rx="5" fill="#B4BBDD" fill-opacity=".95"/>
<rect x="386" y="178" width="102" height="10" rx="5" fill="#D7DCF4" fill-opacity=".95"/>
<rect x="354" y="220" width="214" height="136" rx="28" fill="#F7F9FE" stroke="#E4E9F5"/>
<path d="M390 318c24-38 54-68 92-74 30-5 52 8 82 36" stroke="url(#grad)" stroke-width="10" stroke-linecap="round"/>
<circle cx="390" cy="318" r="14" fill="url(#grad)"/>
<circle cx="564" cy="280" r="14" fill="url(#grad)"/>

</svg>