<svg viewBox="0 0 760 520" xmlns="http://www.w3.org/2000/svg" fill="none" aria-hidden="true">
  <defs>
    <linearGradient id="gradA" x1="88" y1="50" x2="620" y2="420" gradientUnits="userSpaceOnUse">
      <stop stop-color="#EDF1FF"/>
      <stop offset="1" stop-color="#DDE7FF"/>
    </linearGradient>
    <linearGradient id="gradB" x1="250" y1="95" x2="500" y2="420" gradientUnits="userSpaceOnUse">
      <stop stop-color="#5F63F6"/>
      <stop offset="1" stop-color="#9C8BFF"/>
    </linearGradient>
  </defs>
  <rect x="90" y="70" width="580" height="360" rx="34" fill="url(#gradA)"/>
  <rect x="145" y="118" width="240" height="276" rx="26" fill="white" stroke="#D9E3FB" stroke-width="2"/>
  <rect x="415" y="118" width="200" height="116" rx="24" fill="white" stroke="#D9E3FB" stroke-width="2"/>
  <rect x="415" y="252" width="200" height="142" rx="24" fill="white" stroke="#D9E3FB" stroke-width="2"/>
  <rect x="173" y="152" width="182" height="16" rx="8" fill="#E8EDFE"/>
  <rect x="173" y="182" width="146" height="10" rx="5" fill="#EEF3FF"/>
  <rect x="173" y="202" width="172" height="10" rx="5" fill="#EEF3FF"/>
  <rect x="173" y="239" width="158" height="54" rx="20" fill="url(#gradB)"/>
  <rect x="173" y="318" width="182" height="12" rx="6" fill="#E8EDFE"/>
  <rect x="173" y="342" width="126" height="12" rx="6" fill="#E8EDFE"/>
  <circle cx="464" cy="172" r="26" fill="#EEF3FF"/>
  <circle cx="515" cy="172" r="26" fill="#EEF3FF"/>
  <circle cx="566" cy="172" r="26" fill="#EEF3FF"/>
  <path d="M464 172l14 14 26-36" stroke="#5B61F6" stroke-width="8" stroke-linecap="round" stroke-linejoin="round"/>
  <rect x="442" y="284" width="148" height="24" rx="12" fill="#EEF3FF"/>
  <rect x="442" y="320" width="110" height="14" rx="7" fill="#EEF3FF"/>
  <rect x="442" y="346" width="128" height="14" rx="7" fill="#EEF3FF"/>
  <circle cx="84" cy="122" r="18" fill="#C9D3F7"/>
  <circle cx="684" cy="350" r="20" fill="#DDE6FF"/>
  <circle cx="640" cy="100" r="12" fill="#CBD6FB"/>
  <path d="M498 86C527 82 551 97 566 114" stroke="#B9C7F4" stroke-width="3" stroke-linecap="round" stroke-dasharray="8 8"/>
  <path d="M347 254c42 3 63 20 84 39" stroke="#C2CEF6" stroke-width="4" stroke-linecap="round"/>
</svg>
