<?xml version="1.0" encoding="UTF-8" standalone="no"?>
<svg
   width="571.22333pt"
   height="120.153252pt"
   version="1.1"
   viewBox="0 0 571.22333 120.153252"
   id="svg6"
   xmlns="http://www.w3.org/2000/svg"
   xmlns:svg="http://www.w3.org/2000/svg">
  <defs
     id="defs1">
    <style
       type="text/css"
       id="style1">*{stroke-linejoin: round; stroke-linecap: butt}</style>
  </defs>
  <g
     id="b"
     transform="translate(-12.99485,-16.6078)">
    <g
       id="c">
      <path
         d="M 0,172.8 H 864 V 0 H 0 Z"
         opacity="0"
         id="path1" />
    </g>
    <g
       id="d">
      <g
         id="e">
        <path
           d="M 67.942,118.47 95.434,90.978 q 4.5821,-4.5821 0,-9.1641 L 67.942,54.3219 q -4.5821,-4.5821 -9.1641,0 l -27.492,27.492 q -4.5821,4.5821 0,9.1641 l 27.492,27.492 q 4.5821,4.5821 9.1641,0 z"
           clip-path="url(#a)"
           fill="none"
           stroke="#6d6af8"
           stroke-linecap="round"
           stroke-width="8"
           id="path2" />
      </g>
      <g
         id="f">
        <path
           d="m 116.64,94.983 h 16.766 V 70.172 h 22.236 v 24.811 h 16.753 V 33.175 h -16.753 v 23.47 H 133.406 V 33.175 H 116.64 Z m 63.972,0 h 16.673 V 48.6 h -16.673 z m 8.2969,-51.109 c 4.5135,0 8.2172,-3.3984 8.2172,-7.6331 0,-4.2347 -3.7037,-7.6331 -8.2172,-7.6331 -4.5268,0 -8.2172,3.3984 -8.2172,7.6331 0,4.2347 3.6904,7.6331 8.2172,7.6331 z m 16.843,51.109 h 16.673 V 70.836 c 0,-5.31 3.6108,-8.788 8.5491,-8.788 1.6992,0 4.4737,0.23895 6.133,0.82305 v -14.191 c -1.3275,-0.41152 -2.7745,-0.66375 -4.2214,-0.66375 -4.9383,0 -8.8013,2.9072 -10.461,9.4651 h -0.49118 v -8.881 h -16.182 v 46.383 z m 59.074,0.83632 c 11.815,0 19.62,-5.2304 21.983,-13.567 l -14.682,-2.1638 c -0.99562,2.5754 -3.571,4.0223 -6.9694,4.0223 -4.6064,0 -7.673,-2.7346 -7.8854,-8.4562 h 30.201 v -3.8232 c 0,-14.762 -9.0403,-23.815 -23.059,-23.815 -14.364,0 -23.483,9.5447 -23.483,23.895 0,15.027 9.0004,23.908 23.895,23.908 z m -7.434,-29.298 c 0.50445,-4.394 2.947,-6.7968 7.1818,-6.7968 4.2348,0 6.6773,2.4028 7.1818,6.7968 h -14.364 z m 36.47,28.462 h 16.766 v -24.811 h 22.236 v 24.811 h 16.753 v -61.808 h -16.753 v 23.47 h -22.236 v -23.47 h -16.766 z m 86.208,0.83632 c 11.815,0 19.62,-5.2304 21.983,-13.567 l -14.682,-2.1638 c -0.99562,2.5754 -3.571,4.0223 -6.9694,4.0223 -4.6064,0 -7.673,-2.7346 -7.8854,-8.4562 h 30.201 v -3.8232 c 0,-14.762 -9.0403,-23.815 -23.059,-23.815 -14.364,0 -23.483,9.5447 -23.483,23.895 0,15.027 9.0004,23.908 23.895,23.908 z m -7.434,-29.298 c 0.50445,-4.394 2.947,-6.7968 7.1818,-6.7968 4.2348,0 6.6773,2.4028 7.1818,6.7968 h -14.364 z m 53.395,-33.347 h -16.673 v 61.808 h 16.673 z m 8.4661,79.146 h 16.673 v -24.97 h 0.25222 c 1.9116,4.7259 6.3454,8.2172 12.863,8.2172 9.9032,0 18.253,-7.726 18.253,-23.736 0,-16.793 -8.9208,-23.815 -18.094,-23.815 -6.8897,0 -11.244,3.9825 -13.023,8.7217 h -0.41152 v -8.1376 h -16.514 v 63.72 z m 23.643,-29.537 c -4.5666,0 -7.3809,-4.2347 -7.3809,-10.952 0,-6.8897 2.8143,-11.032 7.3809,-11.032 4.6064,0 7.2216,4.1418 7.2216,11.032 0,6.8499 -2.6152,10.952 -7.2216,10.952 z m 53.435,13.036 c 11.815,0 19.62,-5.2304 21.983,-13.567 l -14.682,-2.1638 c -0.99562,2.5754 -3.571,4.0223 -6.9694,4.0223 -4.6064,0 -7.673,-2.7346 -7.8854,-8.4562 h 30.201 v -3.8232 c 0,-14.762 -9.0403,-23.815 -23.059,-23.815 -14.364,0 -23.483,9.5447 -23.483,23.895 0,15.027 9.0004,23.908 23.895,23.908 z m -7.434,-29.298 c 0.50445,-4.394 2.947,-6.7968 7.1818,-6.7968 4.2348,0 6.6773,2.4028 7.1818,6.7968 h -14.364 z m 36.722,28.462 h 16.673 v -24.147 c 0,-5.31 3.6108,-8.788 8.5491,-8.788 1.6992,0 4.4737,0.23895 6.1331,0.82305 v -14.191 c -1.3275,-0.41152 -2.7745,-0.66375 -4.2214,-0.66375 -4.9383,0 -8.8013,2.9072 -10.461,9.4651 h -0.49118 v -8.881 h -16.182 v 46.383 z"
           clip-path="url(#a)"
           fill="#1a1c26"
           id="path3" />
      </g>
      <g
         id="h">
        <path
           d="M 63.869,104.22 45.541,85.892"
           clip-path="url(#a)"
           fill="none"
           stroke="#6d6af8"
           stroke-linecap="round"
           stroke-width="8"
           id="path4" />
      </g>
      <g
         id="i">
        <path
           d="M 81.179,86.909 62.851,68.581"
           clip-path="url(#a)"
           fill="none"
           stroke="#6d6af8"
           stroke-linecap="round"
           stroke-width="8"
           id="path5" />
      </g>
      <g
         id="j">
        <path
           d="m 54.705,95.055 17.31,-17.31"
           clip-path="url(#a)"
           fill="none"
           stroke="#6d6af8"
           stroke-linecap="round"
           stroke-width="8"
           id="path6" />
      </g>
    </g>
  </g>
  <defs
     id="defs6">
    <clipPath
       id="a">
      <rect
         width="864"
         height="172.8"
         id="rect6"
         x="0"
         y="0" />
    </clipPath>
  </defs>
</svg>
