<svg viewBox="0 0 240 180" xmlns="http://www.w3.org/2000/svg" fill="none" aria-hidden="true">
  <defs>
    <linearGradient id="mg" x1="40" y1="10" x2="180" y2="160" gradientUnits="userSpaceOnUse">
      <stop stop-color="#5B61F6"/>
      <stop offset="1" stop-color="#9688FF"/>
    </linearGradient>
  </defs>
  <ellipse cx="120" cy="158" rx="64" ry="10" fill="#E5EBFF"/>
  <path d="M68 74l70-26c17-6 34 7 34 24v20c0 17-17 30-34 24L68 90V74Z" fill="white" stroke="url(#mg)" stroke-width="6" stroke-linejoin="round"/>
  <path d="M44 77h24v30H44c-8 0-14-6-14-14v-2c0-8 6-14 14-14Z" fill="url(#mg)"/>
  <rect x="54" y="104" width="22" height="36" rx="11" fill="#5B61F6"/>
  <path d="M172 62c10 4 18 14 18 27s-8 23-18 27" stroke="#CBD6FB" stroke-width="6" stroke-linecap="round"/>
  <path d="M189 51c17 9 29 27 29 38s-12 29-29 38" stroke="#D9E3FB" stroke-width="6" stroke-linecap="round"/>
</svg>
